<svg width="64" height="64" viewBox="0 0 64 64" fill="none" xmlns="http://www.w3.org/2000/svg">
<g clip-path="url(#clip0_46_27)">
<path d="M35 12L34.642 12.143C33.2717 12.6913 32.0971 13.6376 31.2697 14.8598C30.4423 16.082 30.0001 17.5241 30 19H46C45.9999 17.5241 45.5577 16.082 44.7303 14.8598C43.9029 13.6376 42.7283 12.6913 41.358 12.143L41 12H35ZM45 57V60C45 60.5304 45.2107 61.0391 45.5858 61.4142C45.9609 61.7893 46.4696 62 47 62H49C49.5304 62 50.0391 61.7893 50.4142 61.4142C50.7893 61.0391 51 60.5304 51 60V57H45ZM13 57V60C13 60.5304 13.2107 61.0391 13.5858 61.4142C13.9609 61.7893 14.4696 62 15 62H17C17.5304 62 18.0391 61.7893 18.4142 61.4142C18.7893 61.0391 19 60.5304 19 60V57H13Z" fill="#54B8AF"/>
<path d="M51 1H44C42.1441 1.00212 40.3649 1.7403 39.0526 3.05259C37.7403 4.36489 37.0021 6.14413 37 8V9H39V8C39.0016 6.6744 39.5289 5.40356 40.4662 4.46622C41.4036 3.52888 42.6744 3.00159 44 3H51C52.3256 3.00159 53.5964 3.52888 54.5338 4.46622C55.4711 5.40356 55.9984 6.6744 56 8V35H58V8C57.9979 6.14413 57.2597 4.36489 55.9474 3.05259C54.6351 1.7403 52.8559 1.00212 51 1Z" fill="#DD5697"/>
<path d="M41.358 12.143L41 12H38L38.358 12.143C39.7283 12.6913 40.9029 13.6376 41.7303 14.8598C42.5577 16.082 42.9999 17.5241 43 19H46C45.9999 17.5241 45.5577 16.082 44.7303 14.8598C43.9029 13.6376 42.7283 12.6913 41.358 12.143Z" fill="#4AA7A2"/>
<path d="M44 32H42V30H44V32ZM44 28H42V26H44V28ZM44 24H42V22H44V24ZM39 32H37V30H39V32ZM39 28H37V26H39V28ZM39 24H37V22H39V24ZM34 32H32V30H34V32ZM34 28H32V26H34V28ZM34 24H32V22H34V24Z" fill="#62C0DB"/>
<path d="M4 35.05V32C3.99989 31.0635 4.26281 30.1458 4.7588 29.3514C5.2548 28.557 5.96393 27.9178 6.80543 27.5068C7.64692 27.0957 8.58694 26.9293 9.51842 27.0264C10.4499 27.1235 11.3354 27.4802 12.074 28.056C12.2986 26.646 13.0187 25.3623 14.1049 24.4356C15.1911 23.5088 16.5722 22.9998 18 23C19.4276 22.9979 20.8105 23.4974 21.9073 24.4113C23.004 25.3252 23.7447 26.5954 24 28C25.3261 28 26.5979 28.5268 27.5355 29.4645C28.4732 30.4022 29 31.6739 29 33V35L4 35.05Z" fill="#E383AF"/>
<path d="M22.3559 24.853C21.7895 24.2701 21.1125 23.8061 20.3645 23.4879C19.6166 23.1697 18.8127 23.0039 17.9999 23C16.5721 22.9998 15.1911 23.5088 14.1049 24.4356C13.0187 25.3623 12.2986 26.646 12.0739 28.056C11.4143 27.5413 10.6358 27.2008 9.81009 27.0657C8.98439 26.9307 8.13798 27.0054 7.3487 27.283C6.55943 27.5606 5.85263 28.0323 5.29332 28.6545C4.73402 29.2768 4.34015 30.0297 4.14795 30.844C5.67305 31.9084 7.42501 32.6031 9.2651 32.8732C11.1052 33.1433 12.9829 32.9813 14.7495 32.4C16.5162 31.8187 18.1232 30.8341 19.4434 29.5242C20.7637 28.2143 21.7608 26.615 22.3559 24.853Z" fill="#ED94C0"/>
<path d="M17 30H15V32H17V30Z" fill="#DD5697"/>
<path d="M10 30H8V32H10V30Z" fill="#DD5697"/>
<path d="M21 30H19V32H21V30Z" fill="#DD5697"/>
<path d="M19 26H17V28H19V26Z" fill="#DD5697"/>
<path d="M3 39.5V47C3 49.6522 4.05357 52.1957 5.92893 54.0711C7.8043 55.9464 10.3478 57 13 57H51C53.6522 57 56.1957 55.9464 58.0711 54.0711C59.9464 52.1957 61 49.6522 61 47V39.5H3Z" fill="#B3E0DD"/>
<path d="M41 8H35C33.8954 8 33 8.89543 33 10C33 11.1046 33.8954 12 35 12H41C42.1046 12 43 11.1046 43 10C43 8.89543 42.1046 8 41 8Z" fill="#4AA7A2"/>
<path d="M41 8H38C38.5304 8 39.0391 8.21071 39.4142 8.58579C39.7893 8.96086 40 9.46957 40 10C40 10.5304 39.7893 11.0391 39.4142 11.4142C39.0391 11.7893 38.5304 12 38 12H41C41.5304 12 42.0391 11.7893 42.4142 11.4142C42.7893 11.0391 43 10.5304 43 10C43 9.46957 42.7893 8.96086 42.4142 8.58579C42.0391 8.21071 41.5304 8 41 8Z" fill="#449A97"/>
<path d="M10.3 56.62C9.99733 56.534 9.70033 56.434 9.409 56.32C9.697 56.434 9.994 56.534 10.3 56.62ZM11.468 56.871C11.187 56.827 10.91 56.771 10.638 56.708C10.911 56.774 11.187 56.827 11.468 56.871ZM35.626 54C39.6008 50.1228 42.1352 45.0064 42.811 39.495H3V47C3.00072 48.9183 3.55639 50.7954 4.6 52.405C6.20869 53.4459 8.08391 53.9998 10 54H35.626Z" fill="#BEEAE5"/>
<path d="M9.40008 56.323C9.33808 56.299 9.27408 56.279 9.21308 56.254C9.27808 56.279 9.34208 56.3 9.40008 56.323ZM11.8131 56.923C11.6971 56.909 11.5831 56.888 11.4681 56.871C11.5831 56.888 11.7001 56.909 11.8131 56.923ZM58.0001 39.495V46.333C58.0002 47.3399 57.802 48.3369 57.4167 49.2672C57.0315 50.1974 56.4667 51.0427 55.7548 51.7547C55.0428 52.4666 54.1975 53.0314 53.2673 53.4166C52.337 53.8019 51.34 54.0001 50.3331 54H35.6261C34.4879 55.118 33.2437 56.1227 31.9111 57H51.0001C53.6522 57 56.1958 55.9464 58.0711 54.0711C59.9465 52.1957 61.0001 49.6522 61.0001 47V39.495H58.0001ZM6.22408 54.339C6.19408 54.311 6.16208 54.284 6.13208 54.255C6.16208 54.284 6.19308 54.311 6.22408 54.339Z" fill="#A7D6D5"/>
<path d="M7.174 55.116C7.122 55.079 7.074 55.04 7.021 55.002C7.072 55.04 7.122 55.079 7.174 55.116Z" fill="#A7D6D5"/>
<path d="M10.0001 54C8.08401 53.9998 6.20879 53.4459 4.6001 52.405C5.03643 53.081 5.55246 53.7022 6.1371 54.255C6.1671 54.284 6.1991 54.311 6.2291 54.339C6.48422 54.5736 6.75124 54.7949 7.0291 55.002C7.0801 55.04 7.1291 55.079 7.1821 55.116C7.48188 55.3334 7.79371 55.5338 8.1161 55.716C8.1311 55.724 8.1441 55.734 8.1581 55.741C8.50299 55.9333 8.85933 56.1042 9.2251 56.253C9.2861 56.278 9.3501 56.298 9.4121 56.322C9.70343 56.434 10.0004 56.534 10.3031 56.622C10.4171 56.653 10.5311 56.682 10.6461 56.71C10.9181 56.776 11.1951 56.829 11.4761 56.873C11.5911 56.89 11.7051 56.911 11.8211 56.925C12.2123 56.9734 12.606 56.9985 13.0001 57H31.9111C33.2437 56.1227 34.4879 55.118 35.6261 54H10.0001Z" fill="#B1DDDA"/>
<path d="M59.5 35H4.5C3.11929 35 2 36.1193 2 37.5C2 38.8807 3.11929 40 4.5 40H59.5C60.8807 40 62 38.8807 62 37.5C62 36.1193 60.8807 35 59.5 35Z" fill="#4AA7A2"/>
<path opacity="0.15" d="M13.8 24.747C12.8854 25.6368 12.2807 26.7967 12.075 28.056C11.3364 27.4799 10.4508 27.1229 9.51914 27.0257C8.58751 26.9284 7.64729 27.0948 6.80562 27.5059C5.96395 27.917 5.25468 28.5562 4.75863 29.3508C4.26259 30.1454 3.99972 31.0633 3.99997 32V35.05C3.52728 35.1449 3.09226 35.3748 2.74763 35.712C2.403 36.0491 2.16357 36.479 2.05836 36.9495C1.95314 37.42 1.98667 37.9109 2.15486 38.3627C2.32306 38.8145 2.61871 39.2078 3.00597 39.495H2.99997V47C2.99997 49.6522 4.05354 52.1957 5.9289 54.0711C7.80427 55.9464 10.3478 57 13 57H25.2C27.0416 53.6264 28.0045 49.8436 28 46C28.0006 41.4502 26.6517 37.0024 24.1241 33.2193C21.5965 29.4362 18.0036 26.4878 13.8 24.747Z" fill="white"/>
<path d="M15.8763 26.6533C16.3651 25.9975 16.3691 25.1734 15.8852 24.8126C15.4012 24.4518 14.6126 24.691 14.1237 25.3467C13.6348 26.0025 13.6309 26.8266 14.1148 27.1874C14.5988 27.5481 15.3874 27.309 15.8763 26.6533Z" fill="white"/>
<path d="M6.52109 31.2662C6.72132 30.5986 6.48481 29.9378 5.99284 29.7902C5.50086 29.6427 4.93972 30.0643 4.7395 30.7319C4.53927 31.3995 4.77578 32.0603 5.26775 32.2078C5.75973 32.3554 6.32087 31.9338 6.52109 31.2662Z" fill="white"/>
<path d="M5 36C4.44772 36 4 36.4477 4 37C4 37.5523 4.44772 38 5 38H7C7.55228 38 8 37.5523 8 37C8 36.4477 7.55228 36 7 36H5Z" fill="white"/>
<path d="M10 36C9.44772 36 9 36.4477 9 37C9 37.5523 9.44772 38 10 38H17C17.5523 38 18 37.5523 18 37C18 36.4477 17.5523 36 17 36H10Z" fill="white"/>
<path opacity="0.15" d="M37 13C36.9978 12.6656 36.9748 12.3316 36.931 12H35L34.642 12.143C33.2717 12.6913 32.0971 13.6376 31.2697 14.8598C30.4423 16.082 30.0001 17.5241 30 19H34.279C35.1339 18.2516 35.819 17.329 36.2883 16.2942C36.7576 15.2594 37.0002 14.1362 37 13ZM33 10C33 10.5304 33.2107 11.0391 33.5858 11.4142C33.9609 11.7893 34.4696 12 35 12H36.931C36.7491 10.5357 36.1637 9.15075 35.24 8H35C34.4696 8 33.9609 8.21071 33.5858 8.58579C33.2107 8.96086 33 9.46957 33 10Z" fill="white"/>
<path d="M33.3988 15.905C33.7843 15.3323 33.741 14.6285 33.3021 14.3331C32.8632 14.0376 32.1949 14.2623 31.8094 14.835C31.4239 15.4077 31.4671 16.1115 31.906 16.4069C32.3449 16.7024 33.0133 16.4777 33.3988 15.905Z" fill="white"/>
<path d="M34.8264 9.83335C35.188 9.47172 35.2564 8.95379 34.9791 8.67652C34.7018 8.39925 34.1839 8.46763 33.8223 8.82926C33.4606 9.19088 33.3923 9.70881 33.6695 9.98609C33.9468 10.2634 34.4647 10.195 34.8264 9.83335Z" fill="white"/>
</g>
<defs>
<clipPath id="clip0_46_27">
<rect width="64" height="64" fill="white"/>
</clipPath>
</defs>
</svg>