<svg width="64" height="64" viewBox="0 0 64 64" fill="none" xmlns="http://www.w3.org/2000/svg">
<path d="M47 14.61C47 14.61 42.61 11.91 32 11.91C21.39 11.91 17 14.61 17 14.61L15.21 17.61L15.62 32.85L46.29 34.06L50.2 28L47 14.61Z" fill="#EFC89D"/>
<path d="M27.7801 30.06L26.3601 29.13L27.7801 28.19C27.7788 27.8889 27.8371 27.5905 27.9517 27.3121C28.0663 27.0336 28.235 26.7807 28.4479 26.5678C28.6608 26.3548 28.9138 26.1862 29.1922 26.0716C29.4706 25.957 29.769 25.8987 30.0701 25.9H33.9301C34.2312 25.8987 34.5296 25.957 34.808 26.0716C35.0864 26.1862 35.3394 26.3548 35.5523 26.5678C35.7652 26.7807 35.9339 27.0336 36.0485 27.3121C36.1631 27.5905 36.2214 27.8889 36.2201 28.19L37.6401 29.13L36.2201 30.06L32.3501 31.59L27.7801 30.06Z" fill="#D0E1E8"/>
<path d="M52.6701 35.82V14.61C52.6271 13.8872 52.3097 13.2081 51.7828 12.7116C51.2558 12.215 50.5591 11.9384 49.8351 11.9384C49.111 11.9384 48.4143 12.215 47.8874 12.7116C47.3604 13.2081 47.043 13.8872 47.0001 14.61V36.31L52.6701 35.82ZM17.0001 36.31V14.61C16.9571 13.8872 16.6397 13.2081 16.1128 12.7116C15.5858 12.215 14.8891 11.9384 14.1651 11.9384C13.441 11.9384 12.7443 12.215 12.2174 12.7116C11.6904 13.2081 11.373 13.8872 11.3301 14.61V35.82L17.0001 36.31Z" fill="#E5936B"/>
<path d="M16 30.06V27.44C15.9987 27.0207 16.0803 26.6053 16.2402 26.2177C16.4 25.8301 16.6349 25.4779 16.9314 25.1814C17.2279 24.8849 17.5801 24.65 17.9677 24.4902C18.3553 24.3303 18.7707 24.2487 19.19 24.25H24.6C25.0198 24.2487 25.4357 24.3302 25.8238 24.49C26.212 24.6497 26.5649 24.8845 26.8622 25.1808C27.1594 25.4772 27.3953 25.8293 27.5562 26.2169C27.7172 26.6046 27.8 27.0203 27.8 27.44V30.06L21.9 32.14L16 30.06ZM36.22 30.06V27.44C36.22 27.0203 36.3029 26.6046 36.4638 26.2169C36.6247 25.8293 36.8606 25.4772 37.1579 25.1808C37.4552 24.8845 37.808 24.6497 38.1962 24.49C38.5844 24.3302 39.0003 24.2487 39.42 24.25H44.83C45.2476 24.2513 45.6609 24.3349 46.0462 24.4959C46.4315 24.6569 46.7813 24.8923 47.0757 25.1885C47.3701 25.4847 47.6032 25.836 47.7618 26.2223C47.9204 26.6086 48.0013 27.0224 48 27.44V30.06L42.1 32.14L36.22 30.06Z" fill="#E0E9EE"/>
<path d="M11.3301 38.51V34.71C11.3288 34.0973 11.4488 33.4904 11.6832 32.9243C11.9177 32.3582 12.262 31.8442 12.6962 31.4119C13.1303 30.9796 13.6458 30.6375 14.2129 30.4055C14.78 30.1735 15.3874 30.056 16.0001 30.06H48.0001C48.6111 30.0587 49.2164 30.1781 49.7811 30.4113C50.3459 30.6445 50.859 30.987 51.2911 31.419C51.7231 31.8511 52.0656 32.3642 52.2988 32.929C52.532 33.4937 52.6514 34.099 52.6501 34.71V38.51L32.0001 41.88L11.3301 38.51Z" fill="#F0F4F7"/>
<path d="M10.4801 38.51C10.1532 38.5087 9.82928 38.5722 9.52713 38.697C9.22499 38.8218 8.95062 39.0053 8.71994 39.2369C8.48925 39.4686 8.30683 39.7437 8.18326 40.0463C8.0597 40.349 7.99743 40.6731 8.00008 41V50.49C8.00008 50.9515 8.1834 51.3941 8.50972 51.7204C8.83603 52.0467 9.2786 52.23 9.74008 52.23C10.7401 52.23 11.0801 51.36 11.4801 50.49L13.4801 46.15H50.4801L52.4801 50.49C52.8801 51.36 53.2501 52.23 54.2201 52.23C54.4528 52.2354 54.6842 52.194 54.9006 52.1083C55.117 52.0226 55.314 51.8944 55.48 51.7312C55.6459 51.5681 55.7775 51.3733 55.8668 51.1583C55.9562 50.9434 56.0015 50.7127 56.0001 50.48V41C56.0014 40.674 55.9382 40.3509 55.814 40.0494C55.6898 39.7479 55.5072 39.474 55.2767 39.2434C55.0461 39.0129 54.7722 38.8302 54.4707 38.7061C54.1692 38.5819 53.8461 38.5187 53.5201 38.52L10.4801 38.51Z" fill="#EFC89D"/>
<path d="M37.8 19.31C37.8 19.0628 37.7266 18.8211 37.5893 18.6155C37.4519 18.41 37.2567 18.2498 37.0283 18.1551C36.7999 18.0605 36.5486 18.0358 36.3061 18.084C36.0636 18.1322 35.8409 18.2513 35.6661 18.4261C35.4913 18.6009 35.3722 18.8237 35.324 19.0661C35.2757 19.3086 35.3005 19.5599 35.3951 19.7884C35.4897 20.0168 35.6499 20.212 35.8555 20.3493C36.0611 20.4867 36.3027 20.56 36.55 20.56C36.8815 20.56 37.1994 20.4283 37.4338 20.1939C37.6683 19.9595 37.8 19.6415 37.8 19.31ZM33.25 19.31C33.25 19.0628 33.1766 18.8211 33.0393 18.6155C32.9019 18.41 32.7067 18.2498 32.4783 18.1551C32.2499 18.0605 31.9986 18.0358 31.7561 18.084C31.5136 18.1322 31.2909 18.2513 31.1161 18.4261C30.9413 18.6009 30.8222 18.8237 30.774 19.0661C30.7257 19.3086 30.7505 19.5599 30.8451 19.7884C30.9397 20.0168 31.0999 20.212 31.3055 20.3493C31.511 20.4867 31.7527 20.56 32 20.56C32.3315 20.56 32.6494 20.4283 32.8838 20.1939C33.1183 19.9595 33.25 19.6415 33.25 19.31ZM28.7 19.31C28.7 19.0628 28.6266 18.8211 28.4893 18.6155C28.3519 18.41 28.1567 18.2498 27.9283 18.1551C27.6999 18.0605 27.4486 18.0358 27.2061 18.084C26.9636 18.1322 26.7409 18.2513 26.5661 18.4261C26.3913 18.6009 26.2722 18.8237 26.224 19.0661C26.1757 19.3086 26.2005 19.5599 26.2951 19.7884C26.3897 20.0168 26.5499 20.212 26.7555 20.3493C26.9611 20.4867 27.2027 20.56 27.45 20.56C27.7815 20.56 28.0994 20.4283 28.3338 20.1939C28.5683 19.9595 28.7 19.6415 28.7 19.31Z" fill="#E5936B"/>
</svg>
