<svg width="445" height="445" viewBox="0 0 445 445" fill="none" xmlns="http://www.w3.org/2000/svg">
<path d="M284.508 444.036H160.612C48.4854 444.036 0.578735 396.129 0.578735 284.003V160.106C0.578735 47.98 48.4854 0.0733643 160.612 0.0733643H284.508C396.635 0.0733643 444.541 47.98 444.541 160.106V284.003C444.541 396.129 396.635 444.036 284.508 444.036ZM160.612 31.0475C65.4179 31.0475 31.5529 64.9125 31.5529 160.106V284.003C31.5529 379.197 65.4179 413.062 160.612 413.062H284.508C379.702 413.062 413.567 379.197 413.567 284.003V160.106C413.567 64.9125 379.702 31.0475 284.508 31.0475H160.612Z" fill="#292D32"/>
<path d="M193.228 295.982C189.098 295.982 185.174 294.33 182.283 291.439L123.845 233.001C117.856 227.012 117.856 217.101 123.845 211.112C129.833 205.124 139.745 205.124 145.733 211.112L193.228 258.606L299.366 152.468C305.354 146.48 315.266 146.48 321.254 152.468C327.242 158.456 327.242 168.368 321.254 174.356L204.172 291.439C201.281 294.33 197.357 295.982 193.228 295.982Z" fill="#292D32"/>
</svg>
