<svg width="16" height="18" viewBox="0 0 16 18" fill="none" xmlns="http://www.w3.org/2000/svg">
<path d="M4.91442 8.91203L7.48316 11.4808C7.70627 11.7039 8.07772 11.6671 8.25274 11.4046L11.9144 5.91203M14.2227 3.61559L8.30834 1.08085C8.05679 0.973048 7.77205 0.973048 7.5205 1.08085L1.60612 3.61559C1.19651 3.79114 0.952489 4.21656 1.00777 4.65877L1.62075 9.56265C1.80945 11.0723 2.56457 12.4538 3.73331 13.4278L7.27424 16.3785C7.64509 16.6876 8.18376 16.6876 8.55461 16.3785L12.0955 13.4278C13.2643 12.4538 14.0194 11.0723 14.2081 9.56265L14.8211 4.65877C14.8764 4.21656 14.6323 3.79114 14.2227 3.61559Z" stroke="#89E3AD" stroke-width="2" stroke-linecap="round"/>
</svg>