<svg width="444" height="445" viewBox="0 0 444 445" fill="none" xmlns="http://www.w3.org/2000/svg">
<path d="M315.148 0H129.035C48.1939 0 0 48.1939 0 129.035V314.926C0 395.99 48.1939 444.184 129.035 444.184H314.926C395.768 444.184 443.962 395.99 443.962 315.148V129.035C444.184 48.1939 395.99 0 315.148 0ZM328.252 171.011L202.326 296.937C199.216 300.046 194.997 301.823 190.555 301.823C186.113 301.823 181.893 300.046 178.784 296.937L115.932 234.085C109.491 227.644 109.491 216.984 115.932 210.543C122.373 204.102 133.033 204.102 139.474 210.543L190.555 261.624L304.71 147.469C311.151 141.028 321.811 141.028 328.252 147.469C334.693 153.91 334.693 164.348 328.252 171.011Z" fill="#292D32"/>
</svg>
