<svg width="512" height="512" viewBox="0 0 512 512" fill="none" xmlns="http://www.w3.org/2000/svg">
<path d="M462.811 501.999V432.49C462.811 410.559 455.601 389.237 442.293 371.806C428.984 354.375 410.315 341.802 389.159 336.024L329.099 319.619L256 301.546L182.9 319.619L122.84 336.024C101.685 341.803 83.0154 354.376 69.7073 371.806C56.3991 389.237 49.19 410.56 49.19 432.49V502C49.19 504.652 50.2436 507.196 52.1189 509.071C53.9943 510.946 56.5378 512 59.19 512H452.81C455.462 512 458.006 510.946 459.881 509.071C461.756 507.196 462.81 504.652 462.81 502L462.811 501.999Z" fill="#F9F7F8"/>
<path d="M120.604 511.999C119.676 511.999 118.786 511.63 118.129 510.974C117.473 510.317 117.104 509.427 117.104 508.499V435.325C117.104 434.397 117.473 433.506 118.129 432.85C118.786 432.194 119.676 431.825 120.604 431.825C121.532 431.825 122.423 432.194 123.079 432.85C123.735 433.506 124.104 434.397 124.104 435.325V508.5C124.104 509.428 123.735 510.318 123.079 510.975C122.423 511.631 121.532 512 120.604 512V511.999ZM391.396 511.999C390.468 511.999 389.577 511.63 388.921 510.974C388.265 510.317 387.896 509.427 387.896 508.499V435.325C387.896 434.397 388.265 433.506 388.921 432.85C389.577 432.194 390.468 431.825 391.396 431.825C392.324 431.825 393.215 432.194 393.871 432.85C394.527 433.506 394.896 434.397 394.896 435.325V508.5C394.896 509.428 394.527 510.318 393.871 510.975C393.215 511.631 392.324 512 391.396 512V511.999ZM329.101 319.613L256 353.197L182.899 319.613V274.1L256 309.1L329.101 274.1V319.613Z" fill="#EDEDED"/>
<path d="M256 309.1L329.101 274.1V319.613L256 353.197V309.1Z" fill="#F9F7F8"/>
<path d="M462.811 501.999V432.49C462.811 410.559 455.601 389.237 442.293 371.806C428.984 354.375 410.315 341.802 389.159 336.024L329.099 319.619L329.091 319.617L201.738 378.127C199.13 379.325 196.921 381.246 195.372 383.662C193.823 386.078 193 388.887 193 391.757V512H452.811C455.463 512 458.007 510.946 459.882 509.071C461.757 507.196 462.811 504.652 462.811 502V501.999Z" fill="#EAEAEA"/>
<path d="M235 410.499C240.799 410.499 245.5 405.798 245.5 399.999C245.5 394.2 240.799 389.499 235 389.499C229.201 389.499 224.5 394.2 224.5 399.999C224.5 405.798 229.201 410.499 235 410.499Z" fill="#FF7B4F"/>
<path d="M291 410.499C296.799 410.499 301.5 405.798 301.5 399.999C301.5 394.2 296.799 389.499 291 389.499C285.201 389.499 280.5 394.2 280.5 399.999C280.5 405.798 285.201 410.499 291 410.499Z" fill="#FF7B4F"/>
<path d="M235 459.499C240.799 459.499 245.5 454.798 245.5 448.999C245.5 443.2 240.799 438.499 235 438.499C229.201 438.499 224.5 443.2 224.5 448.999C224.5 454.798 229.201 459.499 235 459.499Z" fill="#FF7B4F"/>
<path d="M291 459.499C296.799 459.499 301.5 454.798 301.5 448.999C301.5 443.2 296.799 438.499 291 438.499C285.201 438.499 280.5 443.2 280.5 448.999C280.5 454.798 285.201 459.499 291 459.499Z" fill="#FF7B4F"/>
<path d="M235 508.499C240.799 508.499 245.5 503.798 245.5 497.999C245.5 492.2 240.799 487.499 235 487.499C229.201 487.499 224.5 492.2 224.5 497.999C224.5 503.798 229.201 508.499 235 508.499Z" fill="#FF7B4F"/>
<path d="M291 508.499C296.799 508.499 301.5 503.798 301.5 497.999C301.5 492.2 296.799 487.499 291 487.499C285.201 487.499 280.5 492.2 280.5 497.999C280.5 503.798 285.201 508.499 291 508.499Z" fill="#FF7B4F"/>
<path d="M336.51 175.467H339.363C346.639 175.467 353.617 178.357 358.762 183.503C363.908 188.648 366.798 195.626 366.798 202.902C366.798 206.505 366.088 210.072 364.71 213.401C363.331 216.729 361.31 219.754 358.762 222.301C356.215 224.849 353.19 226.87 349.862 228.249C346.533 229.627 342.966 230.337 339.363 230.337H336.511L336.51 175.467Z" fill="#E58A7B"/>
<path d="M336.51 230.337V241.917C336.51 253.075 334.312 264.124 330.042 274.433C325.771 284.741 319.512 294.108 311.621 301.997C303.035 310.58 291.392 315.402 279.251 315.402H233.568C221.427 315.402 209.784 310.58 201.198 301.996C193.307 294.107 187.048 284.741 182.777 274.433C178.506 264.125 176.308 253.076 176.308 241.918V178.82L190.428 171.82H322.625L336.511 178.82L336.51 230.337Z" fill="#F9BEAC"/>
<path d="M336.51 216.083H332.51C329.858 216.083 327.314 215.029 325.439 213.154C323.564 211.279 322.51 208.735 322.51 206.083V161.083H336.51V216.083ZM176.309 216.083H180.309C182.961 216.083 185.505 215.029 187.38 213.154C189.255 211.279 190.309 208.735 190.309 206.083V168.083H176.309V216.083ZM287.795 267.483C289.783 267.001 302.407 263.745 309.962 251.987C310.526 251.11 311.048 250.206 311.526 249.28C311.81 248.743 311.924 248.133 311.853 247.53C311.783 246.928 311.531 246.36 311.131 245.904C310.731 245.447 310.202 245.123 309.613 244.973C309.025 244.824 308.405 244.857 307.836 245.067C304.488 246.435 300.843 246.911 297.256 246.451C290.751 245.508 288.312 241.548 282.292 239.319C277.228 237.443 269.122 236.606 256.402 242.481C243.681 236.606 235.576 237.443 230.512 239.319C224.492 241.549 222.052 245.508 215.547 246.451C211.954 246.912 208.303 246.433 204.951 245.061C204.381 244.851 203.761 244.818 203.172 244.968C202.584 245.118 202.055 245.443 201.655 245.9C201.255 246.357 201.004 246.925 200.934 247.529C200.864 248.132 200.979 248.743 201.264 249.279C201.724 250.164 202.246 251.07 202.841 251.987C210.912 264.402 224.986 267.187 227.193 267.589C242.693 270.409 254.339 262.623 256.402 261.192C258.21 262.486 271.245 271.486 287.795 267.482V267.483Z" fill="#343C4A"/>
<path d="M256.411 291.6C250.975 291.592 245.607 290.384 240.691 288.063C239.852 287.666 239.205 286.951 238.893 286.077C238.581 285.203 238.629 284.24 239.027 283.401C239.424 282.563 240.138 281.916 241.013 281.604C241.887 281.292 242.849 281.34 243.688 281.737C247.666 283.616 252.01 284.594 256.41 284.6H256.5C260.869 284.58 265.18 283.603 269.13 281.737C269.545 281.54 269.995 281.427 270.455 281.404C270.914 281.381 271.373 281.449 271.806 281.603C272.239 281.758 272.637 281.996 272.978 282.305C273.318 282.613 273.595 282.986 273.792 283.401C273.989 283.816 274.102 284.266 274.125 284.726C274.148 285.185 274.08 285.644 273.926 286.077C273.771 286.51 273.533 286.908 273.224 287.249C272.916 287.589 272.543 287.866 272.128 288.063C267.246 290.368 261.919 291.575 256.521 291.6H256.411ZM269.114 224.814V231.557C269.114 234.925 267.775 238.156 265.394 240.537C263.012 242.919 259.781 244.257 256.413 244.257H256.406C253.038 244.257 249.808 242.919 247.426 240.537C245.044 238.155 243.706 234.925 243.706 231.557V224.814C243.706 224.018 244.022 223.255 244.585 222.693C245.147 222.13 245.91 221.814 246.706 221.814H266.114C266.91 221.814 267.673 222.13 268.235 222.693C268.798 223.255 269.114 224.018 269.114 224.814ZM176.309 230.337H173.456C166.18 230.337 159.202 227.447 154.057 222.301C148.911 217.156 146.021 210.178 146.021 202.902C146.021 195.626 148.911 188.648 154.057 183.503C159.202 178.357 166.18 175.467 173.456 175.467H176.309V230.337Z" fill="#E58A7B"/>
<path d="M371.816 66.672C371.786 55.9389 368.254 45.5087 361.758 36.9646C355.262 28.4205 346.156 22.229 335.822 19.3299C325.487 16.4308 314.489 16.9824 304.497 20.9009C294.505 24.8194 286.064 31.8909 280.455 41.042C276.179 48.007 235.734 47.736 231.329 40.694C227.146 33.9943 221.414 28.3974 214.617 24.3742C207.82 20.351 200.156 18.0193 192.27 17.5752C184.384 17.1312 176.507 18.5878 169.301 21.8224C162.096 25.0571 155.772 29.9752 150.863 36.163C145.954 42.3507 142.603 49.627 141.092 57.3797C139.582 65.1323 139.955 73.1344 142.181 80.7127C144.407 88.291 148.421 95.2237 153.885 100.927C159.349 106.631 166.102 110.939 173.578 113.489C174.372 113.756 175.062 114.264 175.551 114.943C176.041 115.622 176.306 116.438 176.308 117.275V150.82H336.51V116.99C336.512 116.164 336.77 115.359 337.248 114.685C337.725 114.011 338.399 113.502 339.178 113.226C348.757 109.782 357.036 103.459 362.88 95.1243C368.723 86.7892 371.845 76.8513 371.816 66.672Z" fill="#F9F7F8"/>
<path d="M176.309 150.82H336.511V171.82H176.309V150.82Z" fill="#FF7B4F"/>
<path d="M308.637 19.481C296.897 22.9311 286.855 30.6142 280.455 41.043C276.179 48.007 235.734 47.736 231.329 40.693C228.97 36.9275 226.116 33.4964 222.842 30.492C217.894 38.8857 215.29 48.4536 215.302 58.197H310.699C314.605 53.5734 316.945 47.8308 317.383 41.794C318.193 29.196 309.964 20.792 308.637 19.481Z" fill="#EDEDED"/>
<path d="M296.698 58.197C296.71 48.4536 294.106 38.8856 289.158 30.492C285.783 33.5894 282.854 37.1399 280.455 41.042C276.179 48.007 235.734 47.736 231.329 40.694C224.918 30.4385 214.967 22.8908 203.363 19.481C202.334 20.322 192.683 28.488 193.495 41.407C193.981 47.7638 196.754 53.729 201.302 58.197H296.698Z" fill="#EDEDED"/>
<path d="M201.302 58.197C201.302 43.6902 207.065 29.7776 217.323 19.5197C227.581 9.26183 241.493 3.49902 256 3.49902C270.507 3.49902 284.419 9.26183 294.677 19.5197C304.935 29.7776 310.698 43.6902 310.698 58.197H201.302Z" fill="#F9F7F8"/>
<path d="M302.955 188.572C302.5 188.572 302.049 188.482 301.628 188.309C298.127 186.876 294.368 186.183 290.586 186.271C287.268 186.354 283.994 187.045 280.925 188.309C280.066 188.661 279.103 188.658 278.246 188.3C277.39 187.942 276.71 187.259 276.358 186.4C276.006 185.541 276.009 184.578 276.367 183.721C276.725 182.865 277.408 182.185 278.267 181.833C286.601 178.406 295.95 178.406 304.284 181.833C305.035 182.14 305.655 182.699 306.04 183.413C306.424 184.128 306.549 184.953 306.392 185.749C306.235 186.545 305.806 187.262 305.179 187.777C304.552 188.291 303.766 188.573 302.955 188.572ZM291.275 206.279C290.347 206.279 289.457 205.91 288.8 205.254C288.144 204.597 287.775 203.707 287.775 202.779V195.346C287.775 194.418 288.144 193.527 288.8 192.871C289.457 192.215 290.347 191.846 291.275 191.846C292.203 191.846 293.093 192.215 293.75 192.871C294.406 193.527 294.775 194.418 294.775 195.346V202.779C294.775 203.707 294.406 204.597 293.75 205.254C293.093 205.91 292.203 206.279 291.275 206.279ZM233.223 188.572C232.768 188.572 232.317 188.482 231.896 188.309C228.395 186.877 224.636 186.183 220.854 186.271C217.536 186.354 214.261 187.045 211.192 188.309C210.767 188.484 210.311 188.573 209.852 188.571C209.392 188.57 208.937 188.478 208.513 188.3C208.089 188.123 207.704 187.864 207.38 187.538C207.056 187.212 206.8 186.825 206.625 186.4C206.273 185.541 206.276 184.578 206.634 183.721C206.992 182.865 207.675 182.185 208.534 181.833C216.868 178.406 226.218 178.406 234.552 181.833C235.303 182.14 235.923 182.699 236.308 183.414C236.692 184.128 236.817 184.954 236.66 185.75C236.502 186.546 236.074 187.262 235.447 187.777C234.82 188.292 234.033 188.573 233.222 188.572H233.223ZM221.544 206.279C220.616 206.279 219.725 205.91 219.069 205.254C218.413 204.597 218.044 203.707 218.044 202.779V195.346C218.044 194.418 218.413 193.527 219.069 192.871C219.725 192.215 220.616 191.846 221.544 191.846C222.472 191.846 223.362 192.215 224.019 192.871C224.675 193.527 225.044 194.418 225.044 195.346V202.779C225.044 203.239 224.953 203.694 224.778 204.118C224.602 204.543 224.344 204.929 224.019 205.254C223.694 205.579 223.308 205.837 222.883 206.013C222.459 206.188 222.004 206.279 221.544 206.279Z" fill="#343C4A"/>
<path d="M256 135.452C255.072 135.452 254.182 135.083 253.525 134.427C252.869 133.771 252.5 132.88 252.5 131.952V94.66C252.5 93.7318 252.869 92.8415 253.525 92.1852C254.182 91.5288 255.072 91.16 256 91.16C256.928 91.16 257.819 91.5288 258.475 92.1852C259.131 92.8415 259.5 93.7318 259.5 94.66V131.952C259.5 132.88 259.131 133.771 258.475 134.427C257.819 135.083 256.928 135.452 256 135.452ZM235 135.452C234.072 135.452 233.182 135.083 232.525 134.427C231.869 133.771 231.5 132.88 231.5 131.952V94.66C231.5 93.7318 231.869 92.8415 232.525 92.1852C233.182 91.5288 234.072 91.16 235 91.16C235.928 91.16 236.818 91.5288 237.475 92.1852C238.131 92.8415 238.5 93.7318 238.5 94.66V131.952C238.5 132.88 238.131 133.771 237.475 134.427C236.818 135.083 235.928 135.452 235 135.452ZM277 135.452C276.072 135.452 275.181 135.083 274.525 134.427C273.869 133.771 273.5 132.88 273.5 131.952V94.66C273.5 93.7318 273.869 92.8415 274.525 92.1852C275.181 91.5288 276.072 91.16 277 91.16C277.928 91.16 278.819 91.5288 279.475 92.1852C280.131 92.8415 280.5 93.7318 280.5 94.66V131.952C280.5 132.88 280.131 133.771 279.475 134.427C278.819 135.083 277.928 135.452 277 135.452Z" fill="#EDEDED"/>
</svg>