<svg width="24" height="24" viewBox="0 0 24 24" fill="none" xmlns="http://www.w3.org/2000/svg">
<path d="M6 4H18C18.2652 4 18.5196 3.89464 18.7071 3.70711C18.8946 3.51957 19 3.26522 19 3C19 2.73478 18.8946 2.48043 18.7071 2.29289C18.5196 2.10536 18.2652 2 18 2H6C5.73478 2 5.48043 2.10536 5.29289 2.29289C5.10536 2.48043 5 2.73478 5 3C5 3.26522 5.10536 3.51957 5.29289 3.70711C5.48043 3.89464 5.73478 4 6 4ZM18 20H6C5.73478 20 5.48043 20.1054 5.29289 20.2929C5.10536 20.4804 5 20.7348 5 21C5 21.2652 5.10536 21.5196 5.29289 21.7071C5.48043 21.8946 5.73478 22 6 22H18C18.2652 22 18.5196 21.8946 18.7071 21.7071C18.8946 21.5196 19 21.2652 19 21C19 20.7348 18.8946 20.4804 18.7071 20.2929C18.5196 20.1054 18.2652 20 18 20Z" fill="#F85032"/>
<path d="M15 15H13V9H15C15.1978 8.99996 15.3911 8.94129 15.5555 8.8314C15.7199 8.72152 15.848 8.56535 15.9237 8.38265C15.9994 8.19995 16.0192 7.99892 15.9806 7.80497C15.942 7.61102 15.8468 7.43285 15.707 7.293L12.707 4.293C12.5195 4.10553 12.2652 4.00021 12 4.00021C11.7349 4.00021 11.4806 4.10553 11.293 4.293L8.29303 7.293C8.15322 7.43285 8.05802 7.61102 8.01945 7.80497C7.98088 7.99892 8.00068 8.19995 8.07635 8.38265C8.15202 8.56535 8.28016 8.72152 8.44457 8.8314C8.60898 8.94129 8.80228 8.99996 9.00003 9H11V15H9.00003C8.80228 15 8.60898 15.0587 8.44457 15.1686C8.28016 15.2785 8.15202 15.4346 8.07635 15.6173C8.00068 15.8 7.98088 16.0011 8.01945 16.195C8.05802 16.389 8.15322 16.5671 8.29303 16.707L11.293 19.707C11.4806 19.8945 11.7349 19.9998 12 19.9998C12.2652 19.9998 12.5195 19.8945 12.707 19.707L15.707 16.707C15.8468 16.5671 15.942 16.389 15.9806 16.195C16.0192 16.0011 15.9994 15.8 15.9237 15.6173C15.848 15.4346 15.7199 15.2785 15.5555 15.1686C15.3911 15.0587 15.1978 15 15 15Z" fill="#6DD5FA"/>
</svg>