<svg width="21" height="21" viewBox="0 0 21 21" fill="none" xmlns="http://www.w3.org/2000/svg">
<path fill-rule="evenodd" clip-rule="evenodd" d="M14.25 0C10.5221 0 7.5 3.02208 7.5 6.75C7.5 7.14372 7.53379 7.53016 7.5988 7.90639C7.66599 8.29527 7.56678 8.62256 7.37767 8.81167L0.87868 15.3107C0.31607 15.8733 0 16.6363 0 17.432V20.25C0 20.6642 0.335786 21 0.75 21H4.5C4.91421 21 5.25 20.6642 5.25 20.25V18.75H6.75C7.16421 18.75 7.5 18.4142 7.5 18V16.5H9C9.19891 16.5 9.38968 16.421 9.53033 16.2803L12.1883 13.6223C12.3774 13.4332 12.7047 13.334 13.0936 13.4012C13.4698 13.4662 13.8563 13.5 14.25 13.5C17.9779 13.5 21 10.4779 21 6.75C21 3.02208 17.9779 0 14.25 0ZM14.25 3C13.8358 3 13.5 3.33579 13.5 3.75C13.5 4.16421 13.8358 4.5 14.25 4.5C15.4926 4.5 16.5 5.50736 16.5 6.75C16.5 7.16421 16.8358 7.5 17.25 7.5C17.6642 7.5 18 7.16421 18 6.75C18 4.67893 16.3211 3 14.25 3Z" fill="#F5E69C"/>
</svg>
