<svg width="60" height="48" viewBox="0 0 60 48" fill="none" xmlns="http://www.w3.org/2000/svg">
<path d="M57 21H3V48H57V21Z" fill="#C9C9C9"/>
<path d="M60 13H0V21H60V13Z" fill="#898989"/>
<path d="M57 21H29V48H57V21Z" fill="#D6D6D6"/>
<path d="M53 25H33V37H53V25Z" fill="#E2F4F7"/>
<path d="M57 13V0H45V5C45 5.53043 45.2107 6.03914 45.5858 6.41421C45.9609 6.78929 46.4696 7 47 7C47.5304 7 48.0391 6.78929 48.4142 6.41421C48.7893 6.03914 49 5.53043 49 5V4H53V13H57Z" fill="#B7B7B7"/>
<path d="M4 13H2V9C2 8.73478 2.10536 8.48043 2.29289 8.29289C2.48043 8.10536 2.73478 8 3 8H6V10H4V13ZM14 13H12V10H10V8H13C13.2652 8 13.5196 8.10536 13.7071 8.29289C13.8946 8.48043 14 8.73478 14 9V13ZM19 13H17V9C17 8.73478 17.1054 8.48043 17.2929 8.29289C17.4804 8.10536 17.7348 8 18 8H21V10H19V13ZM29 13H27V10H25V8H28C28.2652 8 28.5196 8.10536 28.7071 8.29289C28.8946 8.48043 29 8.73478 29 9V13Z" fill="#592F18"/>
<path d="M33 37L45 25H47L35 37H33Z" fill="#B1D7E5"/>
<path d="M39 37L51 25H53L41 37H39Z" fill="#B1D7E5"/>
<path d="M26 28H24V35H26V28Z" fill="#777777"/>
<path d="M45 28H41V30H45V28Z" fill="#777777"/>
</svg>
