<svg width="16" height="16" viewBox="0 0 16 16" fill="none" xmlns="http://www.w3.org/2000/svg">
<g clip-path="url(#clip0_1781_30)">
<path d="M0 7.5V14.5C0 14.6326 0.0526784 14.7598 0.146447 14.8536C0.240215 14.9473 0.367392 15 0.5 15H5V7H0.5C0.367392 7 0.240215 7.05268 0.146447 7.14645C0.0526784 7.24021 0 7.36739 0 7.5Z" fill="#1565C0"/>
<path d="M14 6H10V3C10 1.897 9.103 1 8 1H6.5C6.36739 1 6.24022 1.05268 6.14645 1.14645C6.05268 1.24021 6 1.36739 6 1.5V3.867L4.066 7.252C4.02249 7.32739 3.99972 7.41296 4 7.5V14.5C4 14.6326 4.05268 14.7598 4.14645 14.8536C4.24022 14.9473 4.36739 15 4.5 15H12.525C12.9118 14.9999 13.2903 14.8876 13.6145 14.6767C13.9388 14.4658 14.195 14.1655 14.352 13.812L15.956 10.203C15.985 10.1392 16 10.07 16 10V8C16 6.897 15.103 6 14 6Z" fill="#BBDEFB"/>
</g>
<defs>
<clipPath id="clip0_1781_30">
<rect width="16" height="16" fill="white"/>
</clipPath>
</defs>
</svg>
