<svg width="103" height="138" viewBox="0 0 103 138" fill="none" xmlns="http://www.w3.org/2000/svg">
<path d="M51.8377 0C23.6265 0 0.675415 22.9603 0.675415 51.1826C0.675415 93.232 46.7452 134.29 48.7071 136.017C49.6014 136.805 50.7193 137.199 51.8377 137.199C52.9561 137.199 54.074 136.805 54.9688 136.017C56.9298 134.29 103 93.2325 103 51.1826C103 22.9603 80.049 0 51.8377 0ZM51.8377 125.969C41.6522 116.099 10.15 82.9939 10.15 51.1826C10.15 28.1849 28.8511 9.47458 51.8377 9.47458C74.8243 9.47458 93.5254 28.1849 93.5254 51.1826C93.5254 82.9934 62.0232 116.098 51.8377 125.969Z" fill="white"/>
<path d="M28.6517 51.1827C28.6517 38.3086 39.0563 27.8396 51.8377 27.8396C64.6191 27.8396 75.0237 38.3086 75.0237 51.1827C75.0237 64.0572 64.6192 74.5257 51.8377 74.5257C39.0563 74.5257 28.6517 64.0572 28.6517 51.1827ZM37.1258 51.1827C37.1258 59.3765 43.7199 66.0511 51.8377 66.0511C59.9555 66.0511 66.5496 59.3765 66.5496 51.1827C66.5496 42.9888 59.9555 36.3142 51.8377 36.3142C43.7199 36.3142 37.1258 42.9893 37.1258 51.1827Z" fill="white" stroke="white"/>
</svg>
