<svg width="78" height="78" viewBox="0 0 78 78" fill="none" xmlns="http://www.w3.org/2000/svg">
<path d="M6.7878 64.065H10.2212V73.5146H6.7878V64.065Z" fill="#333538"/>
<path d="M60.9476 26.268H64.2447V75.4528H60.9476V26.268Z" fill="#CCCCCC"/>
<path d="M72.2534 0H52.9405C49.931 0 47.4913 2.43966 47.4913 5.44914V24.7621C47.4913 27.7715 49.931 30.2112 52.9405 30.2112H72.2534C75.2629 30.2112 77.7025 27.7715 77.7025 24.7621V5.44914C77.7025 2.43966 75.2629 0 72.2534 0Z" fill="#349DD1"/>
<path d="M62.511 4.62177H57.3872C57.0125 4.61848 56.6418 4.69949 56.3026 4.85882C55.8851 5.05767 55.5326 5.37076 55.2858 5.7618C55.039 6.15284 54.9081 6.60582 54.9082 7.06823V23.8014C54.9082 24.0368 54.9546 24.2698 55.0447 24.4872C55.1348 24.7046 55.2668 24.9021 55.4333 25.0685C55.5998 25.2348 55.7974 25.3667 56.0149 25.4566C56.2324 25.5465 56.4655 25.5927 56.7008 25.5925H57.993C58.2283 25.5927 58.4614 25.5465 58.6789 25.4566C58.8964 25.3667 59.094 25.2348 59.2605 25.0685C59.4269 24.9021 59.559 24.7046 59.6491 24.4872C59.7392 24.2698 59.7856 24.0368 59.7856 23.8014V19.9652C60.7927 19.9652 61.8757 19.9559 62.5063 19.9559C66.7903 19.9559 70.2749 16.5163 70.2749 12.2896C70.2749 8.06292 66.7934 4.62177 62.511 4.62177ZM62.511 15.08C61.8819 15.08 60.8066 15.08 59.8119 15.0893C59.8119 14.0512 59.8027 12.9341 59.8027 12.2896V9.50074H62.5171C64.0851 9.50074 65.4098 10.7774 65.4098 12.2896C65.4098 13.8018 64.0789 15.08 62.511 15.08Z" fill="#E6E6E6"/>
<path d="M8.94607 20.5958H37.8961C42.1318 20.5958 46.1941 22.2784 49.1892 25.2736C52.1844 28.2687 53.867 32.331 53.867 36.5667V67.4457H3.8223C2.99224 67.4457 2.19618 67.116 1.60924 66.529C1.0223 65.9421 0.692566 65.146 0.692566 64.316V28.8431C0.692566 27.7595 0.906094 26.6866 1.32095 25.6856C1.7358 24.6846 2.34385 23.7751 3.11034 23.0092C3.87683 22.2433 4.78673 21.6359 5.78806 21.2218C6.78938 20.8077 7.8625 20.595 8.94607 20.5958Z" fill="#72D3B8"/>
<path d="M52.2185 62.9107H47.0653C45.1305 62.9107 43.5621 64.4791 43.5621 66.4138V66.4154C43.5621 68.3501 45.1305 69.9185 47.0653 69.9185H52.2185C54.1532 69.9185 55.7216 68.3501 55.7216 66.4154V66.4138C55.7216 64.4791 54.1532 62.9107 52.2185 62.9107Z" fill="#E6E6E6"/>
<path d="M30.6156 73.3566C36.0492 73.3566 40.4541 68.9517 40.4541 63.518C40.4541 58.0844 36.0492 53.6795 30.6156 53.6795C25.1819 53.6795 20.7771 58.0844 20.7771 63.518C20.7771 68.9517 25.1819 73.3566 30.6156 73.3566Z" fill="#333538"/>
<path d="M30.6156 68.741C33.5001 68.741 35.8385 66.4026 35.8385 63.518C35.8385 60.6335 33.5001 58.2951 30.6156 58.2951C27.731 58.2951 25.3927 60.6335 25.3927 63.518C25.3927 66.4026 27.731 68.741 30.6156 68.741Z" fill="#E6E6E6"/>
<path d="M75.4854 77.23H2.32406C1.70768 77.23 1.11655 76.9851 0.680701 76.5493C0.244855 76.1134 0 75.5223 0 74.9059C0 74.2895 0.244855 73.6984 0.680701 73.2626C1.11655 72.8267 1.70768 72.5819 2.32406 72.5819H75.4854C76.1018 72.5819 76.6929 72.8267 77.1287 73.2626C77.5646 73.6984 77.8094 74.2895 77.8094 74.9059C77.8094 75.5223 77.5646 76.1134 77.1287 76.5493C76.6929 76.9851 76.1018 77.23 75.4854 77.23Z" fill="#626466"/>
<path d="M35.8571 28.3303H12.9326C10.6128 28.3303 8.73225 30.2108 8.73225 32.5306V45.1518C8.73225 47.4716 10.6128 49.3521 12.9326 49.3521H35.8571C38.1769 49.3521 40.0575 47.4716 40.0575 45.1518V32.5306C40.0575 30.2108 38.1769 28.3303 35.8571 28.3303Z" fill="#55BC9C"/>
<path d="M36.9603 45.1518V32.5306C36.9603 31.9222 36.4671 31.429 35.8587 31.429H12.9342C12.3258 31.429 11.8326 31.9222 11.8326 32.5306V45.1518C11.8326 45.7602 12.3258 46.2534 12.9342 46.2534H35.8587C36.4671 46.2534 36.9603 45.7602 36.9603 45.1518Z" fill="#333538"/>
<path d="M35.3179 34.7524C35.3179 33.8608 34.5951 33.138 33.7035 33.138C32.8118 33.138 32.089 33.8608 32.089 34.7524V42.9269C32.089 43.8185 32.8118 44.5413 33.7035 44.5413C34.5951 44.5413 35.3179 43.8185 35.3179 42.9269V34.7524Z" fill="#626466"/>
<path d="M10.4846 35.6464H37.9983V38.8412H10.4846V35.6464Z" fill="#55BC9C"/>
</svg>
