
<svg width="64" height="64" viewBox="0 0 64 64" fill="none" xmlns="http://www.w3.org/2000/svg">
<path d="M14 58H16V61H14V58ZM48 58H50V61H48V58Z" fill="#4D4D4D"/>
<path d="M8 5C8 4.46957 8.21071 3.96086 8.58579 3.58579C8.96086 3.21071 9.46957 3 10 3H54C54.5304 3 55.0391 3.21071 55.4142 3.58579C55.7893 3.96086 56 4.46957 56 5V57C56 57.5304 55.7893 58.0391 55.4142 58.4142C55.0391 58.7893 54.5304 59 54 59H10C9.46957 59 8.96086 58.7893 8.58579 58.4142C8.21071 58.0391 8 57.5304 8 57V5Z" fill="#CCCCCC"/>
<path d="M32 55C41.9411 55 50 46.9411 50 37C50 27.0589 41.9411 19 32 19C22.0589 19 14 27.0589 14 37C14 46.9411 22.0589 55 32 55Z" fill="#4D4D4D"/>
<path d="M32 51C39.732 51 46 44.732 46 37C46 29.268 39.732 23 32 23C24.268 23 18 29.268 18 37C18 44.732 24.268 51 32 51Z" fill="white"/>
<path d="M56 5C56 4.46957 55.7893 3.96086 55.4142 3.58579C55.0391 3.21071 54.5304 3 54 3H10C9.46957 3 8.96086 3.21071 8.58579 3.58579C8.21071 3.96086 8 4.46957 8 5V15H56V5Z" fill="#3EBBDD"/>
<path d="M12 7H28V11H12V7ZM35 6H53V8H35V6ZM35 10H37V12H35V10ZM39 10H41V12H39V10ZM43 10H45V12H43V10ZM47 10H49V12H47V10ZM51 10H53V12H51V10ZM44.318 30.342C41.95 25.97 37.322 23 32 23C26.233 23 21.284 26.489 19.139 31.469C28.377 34.897 35.174 27.339 44.318 30.342Z" fill="white"/>
<path d="M19.139 31.469C18.3866 33.2158 17.999 35.098 18 37C18 44.732 24.268 51 32 51C39.732 51 46 44.732 46 37C46 34.59 45.39 32.323 44.318 30.342C35.174 27.339 28.377 34.897 19.139 31.469Z" fill="#3EBBDD"/>
<path d="M39 41C36.794 41 35 39.206 35 37C35 34.794 36.794 33 39 33C41.206 33 43 34.794 43 37C43 39.206 41.206 41 39 41ZM39 35C37.897 35 37 35.897 37 37C37 38.103 37.897 39 39 39C40.103 39 41 38.103 41 37C41 35.897 40.103 35 39 35ZM27 42C25.346 42 24 40.654 24 39C24 37.346 25.346 36 27 36C28.654 36 30 37.346 30 39C30 40.654 28.654 42 27 42ZM27 38C26.7425 38.0115 26.4994 38.1219 26.3213 38.3082C26.1431 38.4945 26.0437 38.7423 26.0437 39C26.0437 39.2577 26.1431 39.5055 26.3213 39.6918C26.4994 39.8781 26.7425 39.9885 27 40C27.2575 39.9885 27.5006 39.8781 27.6787 39.6918C27.8569 39.5055 27.9563 39.2577 27.9563 39C27.9563 38.7423 27.8569 38.4945 27.6787 38.3082C27.5006 38.1219 27.2575 38.0115 27 38ZM33 48C31.346 48 30 46.654 30 45C30 43.346 31.346 42 33 42C34.654 42 36 43.346 36 45C36 46.654 34.654 48 33 48ZM33 44C32.7425 44.0115 32.4994 44.1219 32.3213 44.3082C32.1431 44.4945 32.0437 44.7423 32.0437 45C32.0437 45.2577 32.1431 45.5055 32.3213 45.6918C32.4994 45.8781 32.7425 45.9885 33 46C33.2575 45.9885 33.5006 45.8781 33.6787 45.6918C33.8569 45.5055 33.9563 45.2577 33.9563 45C33.9563 44.7423 33.8569 44.4945 33.6787 44.3082C33.5006 44.1219 33.2575 44.0115 33 44Z" fill="white"/>
</svg>
