
<svg width="32" height="32" viewBox="0 0 32 32" fill="none" xmlns="http://www.w3.org/2000/svg">
<path d="M8 5C7.20435 5 6.44129 5.31607 5.87868 5.87868C5.31607 6.44129 5 7.20435 5 8V20C5 20.2652 5.10536 20.5196 5.29289 20.7071C5.48043 20.8946 5.73478 21 6 21H10C10.2652 21 10.5196 20.8946 10.7071 20.7071C10.8946 20.5196 11 20.2652 11 20V8C11 7.20435 10.6839 6.44129 10.1213 5.87868C9.55871 5.31607 8.79565 5 8 5Z" fill="#B5E3FF"/>
<path d="M30 19H2C1.44772 19 1 19.4477 1 20V26C1 26.5523 1.44772 27 2 27H30C30.5523 27 31 26.5523 31 26V20C31 19.4477 30.5523 19 30 19Z" fill="#FFC661"/>
<path d="M30 19H2C1.73478 19 1.48043 19.1054 1.29289 19.2929C1.10536 19.4804 1 19.7348 1 20H28.79C29.0552 20 29.3096 20.1054 29.4971 20.2929C29.6846 20.4804 29.79 20.7348 29.79 21V27H30C30.2652 27 30.5196 26.8946 30.7071 26.7071C30.8946 26.5196 31 26.2652 31 26V20C31 19.7348 30.8946 19.4804 30.7071 19.2929C30.5196 19.1054 30.2652 19 30 19Z" fill="#F7B54B"/>
<path d="M5.17 11H10.83H11V8C11 7.20435 10.6839 6.44129 10.1213 5.87868C9.55871 5.31607 8.79565 5 8 5C7.20435 5 6.44129 5.31607 5.87868 5.87868C5.31607 6.44129 5 7.20435 5 8V11H5.17Z" fill="#9ED4EF"/>
<path d="M26.24 24H22.24C21.9748 24 21.7204 23.8946 21.5329 23.7071C21.3453 23.5196 21.24 23.2652 21.24 23C21.24 22.7348 21.3453 22.4804 21.5329 22.2929C21.7204 22.1054 21.9748 22 22.24 22H26.24C26.5052 22 26.7596 22.1054 26.9471 22.2929C27.1346 22.4804 27.24 22.7348 27.24 23C27.24 23.2652 27.1346 23.5196 26.9471 23.7071C26.7596 23.8946 26.5052 24 26.24 24Z" fill="#EEF5F6"/>
<path d="M26.24 22H22.24C22.0477 22.0004 21.8595 22.0563 21.6981 22.1609C21.5367 22.2656 21.4089 22.4146 21.33 22.59H21.46H25.46C25.7252 22.59 25.9796 22.6954 26.1671 22.8829C26.3547 23.0704 26.46 23.3248 26.46 23.59C26.4574 23.7313 26.4268 23.8706 26.37 24C26.6121 23.9683 26.8342 23.8491 26.9945 23.6648C27.1548 23.4806 27.2421 23.2442 27.24 23C27.24 22.7348 27.1347 22.4804 26.9471 22.2929C26.7596 22.1054 26.5052 22 26.24 22Z" fill="#DCE9F4"/>
<path d="M19.53 15.05L19.39 15.19C19.2963 15.283 19.2219 15.3936 19.1711 15.5155C19.1204 15.6373 19.0942 15.768 19.0942 15.9C19.0942 16.0321 19.1204 16.1628 19.1711 16.2846C19.2219 16.4065 19.2963 16.5171 19.39 16.6101C19.4835 16.7027 19.5943 16.7761 19.7161 16.8258C19.8379 16.8756 19.9684 16.9008 20.1 16.9C20.3624 16.8989 20.6138 16.7948 20.8 16.6101L20.95 16.47C21.0433 16.3768 21.1172 16.2661 21.1677 16.1443C21.2181 16.0225 21.2441 15.8919 21.2441 15.76C21.2441 15.6282 21.2181 15.4976 21.1677 15.3758C21.1172 15.254 21.0433 15.1433 20.95 15.05C20.8568 14.9568 20.7461 14.8829 20.6243 14.8324C20.5024 14.7819 20.3719 14.756 20.24 14.756C20.1082 14.756 19.9776 14.7819 19.8558 14.8324C19.7339 14.8829 19.6233 14.9568 19.53 15.05ZM27.88 8.12005C26.8587 7.09925 25.6407 6.2964 24.3 5.7601C22.9593 5.22381 21.5236 4.96524 20.08 5.00005C19.8148 5.00005 19.5604 5.10541 19.3729 5.29294C19.1854 5.48048 19.08 5.73483 19.08 6.00005C19.08 6.26527 19.1854 6.51962 19.3729 6.70716C19.5604 6.89469 19.8148 7.00005 20.08 7.00005C21.257 6.96717 22.4283 7.17408 23.5227 7.60819C24.6172 8.0423 25.6119 8.69453 26.4463 9.5252C27.2807 10.3559 27.9374 11.3476 28.3764 12.4401C28.8154 13.5326 29.0276 14.703 29 15.88C29 16.0114 29.0259 16.1414 29.0761 16.2627C29.1264 16.3841 29.2001 16.4943 29.2929 16.5872C29.3858 16.68 29.496 16.7537 29.6173 16.8039C29.7387 16.8542 29.8687 16.88 30 16.88C30.2652 16.88 30.5196 16.7747 30.7071 16.5872C30.8947 16.3996 31 16.1453 31 15.88C31.0282 14.4433 30.7665 13.0156 30.2304 11.6823C29.6944 10.3489 28.895 9.1374 27.88 8.12005Z" fill="#B5E3FF"/>
<path d="M19.51 9.74001C19.3785 9.7525 19.2507 9.79095 19.134 9.85314C19.0174 9.91532 18.9143 10 18.8306 10.1023C18.7469 10.2046 18.6843 10.3224 18.6465 10.4491C18.6086 10.5757 18.5962 10.7086 18.61 10.84C18.6378 11.102 18.7679 11.3425 18.972 11.5092C19.1761 11.6758 19.4377 11.7552 19.7 11.73C20.3214 11.6499 20.9528 11.7097 21.5481 11.9053C22.1433 12.1008 22.6872 12.427 23.14 12.86C23.5743 13.3117 23.9006 13.8558 24.0946 14.4515C24.2886 15.0473 24.3451 15.6793 24.26 16.3C24.235 16.5639 24.3157 16.8269 24.4844 17.0313C24.6532 17.2357 24.8962 17.3647 25.16 17.39H25.26C25.5104 17.391 25.752 17.2981 25.9371 17.1296C26.1223 16.9611 26.2375 16.7293 26.26 16.48C26.3835 15.5654 26.2943 14.6346 25.9994 13.7601C25.7045 12.8856 25.2119 12.0908 24.5598 11.4378C23.9076 10.7847 23.1137 10.2908 22.2396 9.99463C21.3655 9.69844 20.4348 9.60788 19.52 9.73001L19.51 9.74001Z" fill="#B5E3FF"/>
<path d="M21 16.47L20.86 16.61C20.7665 16.7027 20.6557 16.776 20.5339 16.8258C20.412 16.8756 20.2816 16.9008 20.15 16.9C19.9555 16.8977 19.7654 16.8423 19.6 16.74C19.794 16.6993 19.9715 16.6018 20.11 16.46L20.25 16.32C20.4362 16.1327 20.5408 15.8792 20.5408 15.615C20.5408 15.3508 20.4362 15.0974 20.25 14.91L20.1 14.78C20.2606 14.7478 20.4267 14.7556 20.5837 14.8027C20.7406 14.8498 20.8836 14.9347 21 15.05C21.0937 15.143 21.1681 15.2536 21.2189 15.3754C21.2696 15.4973 21.2958 15.628 21.2958 15.76C21.2958 15.892 21.2696 16.0227 21.2189 16.1446C21.1681 16.2665 21.0937 16.3771 21 16.47ZM31 15.92C31 16.0513 30.9741 16.1814 30.9239 16.3027C30.8736 16.424 30.7999 16.5343 30.7071 16.6271C30.6142 16.72 30.504 16.7936 30.3827 16.8439C30.2613 16.8941 30.1313 16.92 30 16.92C29.8147 16.9191 29.6337 16.8634 29.48 16.76C29.7074 16.7112 29.9107 16.5847 30.0549 16.4022C30.1991 16.2196 30.2752 15.9926 30.27 15.76C30.2973 14.3216 30.0332 12.8925 29.4936 11.5589C28.9539 10.2253 28.1499 9.01466 27.13 8.00001C25.707 6.5674 23.9019 5.57455 21.93 5.14001C24.4952 5.52413 26.8321 6.83125 28.5021 8.81604C30.172 10.8008 31.0602 13.3268 31 15.92ZM26.26 16.49C26.2374 16.7393 26.1222 16.9711 25.9371 17.1396C25.7519 17.3081 25.5103 17.401 25.26 17.4H25.16C24.9993 17.3838 24.8448 17.3289 24.71 17.24C24.92 17.1983 25.111 17.0903 25.255 16.9319C25.399 16.7735 25.4884 16.573 25.51 16.36C25.6237 15.4423 25.529 14.5108 25.233 13.6347C24.9369 12.7586 24.4471 11.9606 23.8 11.3C23.052 10.5539 22.1153 10.025 21.09 9.77002C22.399 9.9263 23.6176 10.518 24.55 11.45C25.1949 12.108 25.6834 12.9026 25.9794 13.7751C26.2755 14.6476 26.3713 15.5755 26.26 16.49Z" fill="#9ED4EF"/>
</svg>